<svg xmlns="http://www.w3.org/2000/svg" width="101" height="77" viewBox="0 0 101 77">
    <defs>
        <linearGradient id="a" x1="0%" x2="99.999%" y1="50%" y2="50%">
            <stop offset="0%" stop-color="#419AFF"/>
            <stop offset="100%" stop-color="#536BE6"/>
        </linearGradient>
        <linearGradient id="b" x1="41.96%" x2="47.167%" y1="-16.058%" y2="85.838%">
            <stop offset="0%" stop-color="#419AFF"/>
            <stop offset="100%" stop-color="#536BE6"/>
        </linearGradient>
    </defs>
    <g fill="none" fill-rule="evenodd">
        <path fill="#FFF" d="M.73 45.7L99.957.834 85.14 76.165 51.335 45.7z"/>
        <path fill="url(#a)" fill-rule="nonzero" d="M85.14 76.896a.728.728 0 0 1-.488-.188L51.055 46.43H.73a.73.73 0 0 1-.3-1.396L99.656.169a.73.73 0 0 1 1.018.805L85.858 76.305a.73.73 0 0 1-.718.59zM4.12 44.969h47.215a.73.73 0 0 1 .488.188l32.85 29.604L98.967 2.087 4.12 44.969z"/>
        <path fill="url(#b)" fill-rule="nonzero" d="M47.37 62.184a.835.835 0 0 1-.787-.557l-5.425-15.442a.835.835 0 1 1 1.575-.553L47.787 60l9.881-7.39-6.897-6.284a.835.835 0 0 1 0-1.229L99.393.232a.835.835 0 0 1 1.133 1.227l-47.958 44.24 6.964 6.36a.835.835 0 0 1-.063 1.286l-11.598 8.672a.835.835 0 0 1-.501.167zM94.844 61.976h-.075a.73.73 0 0 1-.651-.802l2.713-26.292a.734.734 0 0 1 1.46.15L95.58 61.325a.73.73 0 0 1-.735.65zM99.435 71.157h-.015a.73.73 0 0 1-.715-.745l.417-21.284a.73.73 0 0 1 1.46.029l-.417 21.284a.73.73 0 0 1-.73.716zM19.616 32.449a.73.73 0 0 1-.26-1.415l20.451-7.721a.73.73 0 0 1 .516 1.367l-20.45 7.72a.728.728 0 0 1-.257.049zM5.739 31.927a.73.73 0 0 1-.226-1.425l20.66-6.678a.73.73 0 0 1 .448 1.39L5.961 31.89a.732.732 0 0 1-.222.036z"/>
    </g>
</svg>
